<svg width="24" height="24" viewBox="0 0 24 24" fill="none" xmlns="http://www.w3.org/2000/svg">
<g clip-path="url(#clip0)">
<path d="M17.106 14.9174C17.106 14.7046 17.0283 14.5205 16.8728 14.365L14.6507 12.1429L16.8728 9.92076C17.0283 9.76525 17.106 9.5811 17.106 9.3683C17.106 9.14732 17.0283 8.95908 16.8728 8.80357L15.7679 7.69866C15.6124 7.54315 15.4241 7.4654 15.2031 7.4654C14.9903 7.4654 14.8062 7.54315 14.6507 7.69866L12.4286 9.92076L10.2065 7.69866C10.051 7.54315 9.86682 7.4654 9.65402 7.4654C9.43304 7.4654 9.24479 7.54315 9.08929 7.69866L7.98438 8.80357C7.82887 8.95908 7.75112 9.14732 7.75112 9.3683C7.75112 9.5811 7.82887 9.76525 7.98438 9.92076L10.2065 12.1429L7.98438 14.365C7.82887 14.5205 7.75112 14.7046 7.75112 14.9174C7.75112 15.1384 7.82887 15.3266 7.98438 15.4821L9.08929 16.5871C9.24479 16.7426 9.43304 16.8203 9.65402 16.8203C9.86682 16.8203 10.051 16.7426 10.2065 16.5871L12.4286 14.365L14.6507 16.5871C14.8062 16.7426 14.9903 16.8203 15.2031 16.8203C15.4241 16.8203 15.6124 16.7426 15.7679 16.5871L16.8728 15.4821C17.0283 15.3266 17.106 15.1384 17.106 14.9174ZM20.5926 7.41629C21.4356 8.85677 21.8571 10.4323 21.8571 12.1429C21.8571 13.8534 21.4356 15.433 20.5926 16.8817C19.7496 18.3222 18.6038 19.4639 17.1551 20.3069C15.7147 21.1499 14.1391 21.5714 12.4286 21.5714C10.718 21.5714 9.13839 21.1499 7.68973 20.3069C6.24926 19.4639 5.10752 18.3222 4.26451 16.8817C3.4215 15.433 3 13.8534 3 12.1429C3 10.4323 3.4215 8.85677 4.26451 7.41629C5.10752 5.96763 6.24926 4.8218 7.68973 3.97879C9.13839 3.13579 10.718 2.71428 12.4286 2.71428C14.1391 2.71428 15.7147 3.13579 17.1551 3.97879C18.6038 4.8218 19.7496 5.96763 20.5926 7.41629Z" fill="#721C24"/>
</g>
<defs>
<clipPath id="clip0">
<rect width="24" height="24" fill="white"/>
</clipPath>
</defs>
</svg>
