<svg width="24" height="24" viewBox="0 0 24 24" fill="none" xmlns="http://www.w3.org/2000/svg">
<path d="M13.2857 16.3828V14.4743C13.2857 14.3806 13.2522 14.3036 13.1853 14.2433C13.125 14.1763 13.0513 14.1429 12.9643 14.1429H11.0357C10.9487 14.1429 10.8717 14.1763 10.8047 14.2433C10.7444 14.3036 10.7143 14.3806 10.7143 14.4743V16.3828C10.7143 16.4766 10.7444 16.5569 10.8047 16.6239C10.8717 16.6842 10.9487 16.7143 11.0357 16.7143H12.9643C13.0513 16.7143 13.125 16.6842 13.1853 16.6239C13.2522 16.5569 13.2857 16.4766 13.2857 16.3828ZM13.2656 12.6261L13.4464 8.01562C13.4464 7.93527 13.4129 7.87165 13.346 7.82478C13.2589 7.75112 13.1786 7.71429 13.1049 7.71429H10.8951C10.8214 7.71429 10.7411 7.75112 10.654 7.82478C10.5871 7.87165 10.5536 7.94196 10.5536 8.03571L10.7243 12.6261C10.7243 12.6931 10.7578 12.75 10.8248 12.7969C10.8917 12.8371 10.9721 12.8571 11.0658 12.8571H12.9241C13.0179 12.8571 13.0949 12.8371 13.1551 12.7969C13.2221 12.75 13.2589 12.6931 13.2656 12.6261ZM13.125 3.24442L20.8393 17.3873C21.0737 17.8092 21.067 18.231 20.8192 18.6529C20.7054 18.8471 20.548 19.0011 20.3471 19.115C20.1529 19.2288 19.942 19.2857 19.7143 19.2857H4.28571C4.05804 19.2857 3.84375 19.2288 3.64286 19.115C3.44866 19.0011 3.29464 18.8471 3.1808 18.6529C2.93304 18.231 2.92634 17.8092 3.16071 17.3873L10.875 3.24442C10.9888 3.03683 11.1462 2.87277 11.3471 2.75223C11.548 2.6317 11.7656 2.57143 12 2.57143C12.2344 2.57143 12.452 2.6317 12.6529 2.75223C12.8538 2.87277 13.0112 3.03683 13.125 3.24442Z" fill="#856404"/>
</svg>
