<svg width="24" height="24" viewBox="0 0 24 24" fill="none" xmlns="http://www.w3.org/2000/svg">
<circle cx="12" cy="12" r="11.5" stroke="#0C5460"/>
<path d="M13.2344 9.73438V15.8984C13.2344 16.3255 13.1328 16.6484 12.9297 16.8672C12.7266 17.0859 12.4688 17.1953 12.1562 17.1953C11.8438 17.1953 11.5885 17.0833 11.3906 16.8594C11.1979 16.6354 11.1016 16.3151 11.1016 15.8984V9.79688C11.1016 9.375 11.1979 9.05729 11.3906 8.84375C11.5885 8.63021 11.8438 8.52344 12.1562 8.52344C12.4688 8.52344 12.7266 8.63021 12.9297 8.84375C13.1328 9.05729 13.2344 9.35417 13.2344 9.73438ZM12.1797 7.53125C11.8828 7.53125 11.6276 7.4401 11.4141 7.25781C11.2057 7.07552 11.1016 6.81771 11.1016 6.48438C11.1016 6.18229 11.2083 5.9349 11.4219 5.74219C11.6406 5.54427 11.8932 5.44531 12.1797 5.44531C12.4557 5.44531 12.7005 5.53385 12.9141 5.71094C13.1276 5.88802 13.2344 6.14583 13.2344 6.48438C13.2344 6.8125 13.1302 7.07031 12.9219 7.25781C12.7135 7.4401 12.4661 7.53125 12.1797 7.53125Z" fill="#0C5460"/>
</svg>
