<svg width="24" height="24" viewBox="0 0 24 24" fill="none" xmlns="http://www.w3.org/2000/svg">
<path d="M11.41 7.64996C12.91 7.64996 14.13 6.42996 14.13 4.92996C14.13 3.42996 12.91 2.20996 11.41 2.20996C9.91 2.20996 8.69 3.42996 8.69 4.92996C8.69 6.42996 9.91 7.64996 11.41 7.64996ZM11.41 4.21996C11.81 4.21996 12.13 4.53996 12.13 4.93996C12.13 5.33996 11.81 5.65996 11.41 5.65996C11.01 5.65996 10.69 5.33996 10.69 4.93996C10.69 4.53996 11.01 4.21996 11.41 4.21996Z" fill="#2F3C46"/>
<path d="M19.43 8.07991H13.77C13.22 8.07991 12.77 8.52991 12.77 9.07991V12.8199L11.36 12.1099L10.36 8.78991C10.24 8.38991 9.88003 8.10991 9.46003 8.07991C9.07003 8.04991 8.67003 8.28991 8.50003 8.67991L6.35003 13.5699C6.16003 13.9999 6.31003 14.5199 6.70003 14.7899L9.69003 16.8399V20.7899C9.69003 21.3399 10.14 21.7899 10.69 21.7899C11.24 21.7899 11.69 21.3399 11.69 20.7899V16.3199C11.69 15.9899 11.53 15.6799 11.26 15.4899L8.52003 13.6099L9.24003 11.9699L9.58003 13.0999C9.66003 13.3599 9.84003 13.5799 10.09 13.7099L13.31 15.3299C13.45 15.3999 13.61 15.4399 13.77 15.4499H19.43C19.98 15.4499 20.43 14.9999 20.43 14.4499V9.07991C20.43 8.52991 19.99 8.07991 19.43 8.07991ZM18.43 13.4399H14.77V10.0799H18.43V13.4399Z" fill="#2F3C46"/>
<path d="M6.89002 15.55C6.34002 15.55 5.89002 16 5.89002 16.55V17.62L3.79002 20.15C3.44002 20.57 3.50002 21.21 3.92002 21.56C4.11002 21.72 4.33002 21.79 4.56002 21.79C4.85002 21.79 5.13002 21.67 5.33002 21.43L7.89002 18.35V16.56C7.89002 16 7.44002 15.55 6.89002 15.55Z" fill="#2F3C46"/>
</svg>
