
<svg width="8" height="4" viewBox="0 0 8 4" fill="none" xmlns="http://www.w3.org/2000/svg">
<path fill-rule="evenodd" clip-rule="evenodd" d="M1.00002 0C0.90114 2.11122e-05 0.804491 0.0293569 0.722286 0.0842991C0.640081 0.139241 0.576012 0.217323 0.538177 0.308673C0.500342 0.400023 0.49044 0.500539 0.509724 0.597516C0.529008 0.694492 0.576611 0.783574 0.646516 0.8535L3.64652 3.8535C3.74028 3.94724 3.86743 3.99989 4.00002 3.99989C4.1326 3.99989 4.25975 3.94724 4.35352 3.8535L7.35352 0.8535C7.42342 0.783574 7.47102 0.694492 7.49031 0.597516C7.50959 0.500539 7.49969 0.400023 7.46185 0.308673C7.42402 0.217323 7.35995 0.139241 7.27774 0.0842991C7.19554 0.0293569 7.09889 2.11122e-05 7.00002 0H1.00002Z" fill="#506574"/>
</svg>
