<svg width="19" height="20" viewBox="0 0 19 20" fill="none" xmlns="http://www.w3.org/2000/svg">
<path d="M13.8536 2.46026C14.0655 2.23508 14.3171 2.05646 14.594 1.93459C14.8709 1.81272 15.1677 1.75 15.4674 1.75C15.7672 1.75 16.0639 1.81272 16.3408 1.93459C16.6177 2.05646 16.8693 2.23508 17.0813 2.46026C17.2932 2.68544 17.4613 2.95276 17.576 3.24697C17.6907 3.54118 17.7498 3.85651 17.7498 4.17497C17.7498 4.49342 17.6907 4.80875 17.576 5.10296C17.4613 5.39717 17.2932 5.6645 17.0813 5.88968L6.18783 17.464L1.74976 18.75L2.96014 14.0345L13.8536 2.46026Z" stroke="#2F3C46" stroke-width="2" stroke-linecap="round" stroke-linejoin="round"/>
</svg>
