<svg width="32" height="32" viewBox="0 0 32 32" fill="none" xmlns="http://www.w3.org/2000/svg">
<path d="M17.6 2.98666C14.6003 2.99329 11.6945 4.03397 9.37256 5.93329C7.05063 7.8326 5.45456 10.4744 4.85338 13.4133C4.46671 12.84 4.05338 12.2133 3.66671 11.5867C3.58486 11.4531 3.47738 11.3371 3.35046 11.2453C3.22355 11.1535 3.07971 11.0877 2.92725 11.0517C2.77479 11.0158 2.61672 11.0104 2.46216 11.0358C2.3076 11.0613 2.1596 11.1171 2.02671 11.2C1.75827 11.37 1.56821 11.6395 1.49823 11.9495C1.42824 12.2594 1.48403 12.5845 1.65338 12.8533C3.06671 15.1333 4.72004 17.4 4.78671 17.4933C4.88482 17.6251 5.00868 17.7357 5.15078 17.8182C5.29288 17.9007 5.45026 17.9535 5.61338 17.9733H5.76004C6.039 17.9756 6.30921 17.876 6.52004 17.6933C6.61338 17.6133 8.80004 15.7733 10.6667 13.8533C10.7961 13.7452 10.9012 13.611 10.9752 13.4596C11.0493 13.3081 11.0906 13.1427 11.0964 12.9742C11.1023 12.8058 11.0725 12.6379 11.0092 12.4817C10.9458 12.3254 10.8503 12.1843 10.7287 12.0675C10.6072 11.9506 10.4624 11.8607 10.3038 11.8036C10.1451 11.7465 9.97626 11.7234 9.80813 11.7359C9.64 11.7484 9.47639 11.7962 9.32797 11.8762C9.17955 11.9561 9.04964 12.0665 8.94671 12.2C8.37338 12.8 7.76004 13.3867 7.18671 13.92C7.58115 11.9362 8.53151 10.1054 9.92695 8.64117C11.3224 7.17695 13.1054 6.13968 15.0679 5.65032C17.0305 5.16097 19.0918 5.23971 21.0113 5.87736C22.9308 6.51501 24.6295 7.68529 25.9091 9.25169C27.1888 10.8181 27.9967 12.716 28.2387 14.7242C28.4806 16.7323 28.1466 18.7679 27.2756 20.5934C26.4046 22.4189 25.0325 23.9592 23.3194 25.0345C21.6063 26.1098 19.6227 26.6759 17.6 26.6667C17.3053 26.6979 17.0325 26.837 16.8343 27.0574C16.636 27.2777 16.5264 27.5636 16.5264 27.86C16.5264 28.1564 16.636 28.4423 16.8343 28.6626C17.0325 28.883 17.3053 29.0221 17.6 29.0533C21.0514 29.0533 24.3614 27.6823 26.8019 25.2418C29.2423 22.8013 30.6134 19.4913 30.6134 16.04C30.6134 12.5886 29.2423 9.27865 26.8019 6.83818C24.3614 4.39771 21.0514 3.02666 17.6 3.02666V2.98666Z" fill="#2F3D46"/>
<path d="M24.4536 17.9867C24.6209 18.0044 24.79 17.9867 24.9501 17.9348C25.1101 17.8829 25.2574 17.7979 25.3825 17.6854C25.5076 17.5729 25.6076 17.4353 25.676 17.2816C25.7445 17.128 25.7799 16.9616 25.7799 16.7934C25.7799 16.6251 25.7445 16.4587 25.676 16.3051C25.6076 16.1514 25.5076 16.0138 25.3825 15.9013C25.2574 15.7888 25.1101 15.7038 24.9501 15.6519C24.79 15.6 24.6209 15.5823 24.4536 15.6H17.7869V8.69335C17.8046 8.52604 17.7869 8.35688 17.735 8.19685C17.6831 8.03681 17.5982 7.88948 17.4856 7.76441C17.3731 7.63934 17.2355 7.53933 17.0818 7.47087C16.9282 7.40241 16.7618 7.36703 16.5936 7.36703C16.4253 7.36703 16.259 7.40241 16.1053 7.47087C15.9516 7.53933 15.814 7.63934 15.7015 7.76441C15.589 7.88948 15.504 8.03681 15.4521 8.19685C15.4002 8.35688 15.3825 8.52604 15.4002 8.69335V16.8C15.4002 16.9559 15.4309 17.1102 15.4906 17.2541C15.5502 17.3981 15.6376 17.5289 15.7478 17.6391C15.858 17.7493 15.9888 17.8367 16.1328 17.8964C16.2767 17.956 16.4311 17.9867 16.5869 17.9867H24.4536Z" fill="#2F3D46"/>
</svg>
