<svg width="33" height="33" viewBox="0 0 33 33" fill="none" xmlns="http://www.w3.org/2000/svg">
<path d="M24.6154 29V26.3333C24.6154 24.9188 24.0967 23.5623 23.1735 22.5621C22.2502 21.5619 20.998 21 19.6923 21H9.84617C8.54049 21 7.28829 21.5619 6.36503 22.5621C5.44178 23.5623 4.9231 24.9188 4.9231 26.3333V29" stroke="#2F3C46" stroke-width="3" stroke-linecap="round" stroke-linejoin="round"/>
<path d="M14.7693 15.6667C17.4882 15.6667 19.6923 13.2789 19.6923 10.3333C19.6923 7.38781 17.4882 5 14.7693 5C12.0503 5 9.84619 7.38781 9.84619 10.3333C9.84619 13.2789 12.0503 15.6667 14.7693 15.6667Z" stroke="#2F3C46" stroke-width="3" stroke-linecap="round" stroke-linejoin="round"/>
<path d="M27.0769 1L28.5981 4.51069L32 5.07711L29.5384 7.80827L30.1193 11.6667L27.0769 9.84402L24.0344 11.6667L24.6153 7.80827L22.1538 5.07711L25.5557 4.51069L27.0769 1Z" stroke="white" stroke-width="1.5" stroke-linecap="round" stroke-linejoin="round"/>
</svg>
