<svg width="32" height="32" viewBox="0 0 32 32" fill="none" xmlns="http://www.w3.org/2000/svg">
<path d="M12 6.66666C12 7.72752 12.4214 8.74494 13.1716 9.49508C13.9217 10.2452 14.9391 10.6667 16 10.6667C17.0609 10.6667 18.0783 10.2452 18.8284 9.49508C19.5786 8.74494 20 7.72752 20 6.66666C20 5.60579 19.5786 4.58838 18.8284 3.83823C18.0783 3.08808 17.0609 2.66666 16 2.66666C14.9391 2.66666 13.9217 3.08808 13.1716 3.83823C12.4214 4.58838 12 5.60579 12 6.66666ZM16 7.99999C15.6464 7.99999 15.3072 7.85951 15.0572 7.60947C14.8071 7.35942 14.6667 7.02028 14.6667 6.66666C14.6667 6.31303 14.8071 5.9739 15.0572 5.72385C15.3072 5.4738 15.6464 5.33332 16 5.33332C16.3536 5.33332 16.6928 5.4738 16.9428 5.72385C17.1929 5.9739 17.3333 6.31303 17.3333 6.66666C17.3333 7.02028 17.1929 7.35942 16.9428 7.60947C16.6928 7.85951 16.3536 7.99999 16 7.99999ZM16 20C14.9391 20 13.9217 19.5786 13.1716 18.8284C12.4214 18.0783 12 17.0609 12 16C12 14.9391 12.4214 13.9217 13.1716 13.1716C13.9217 12.4214 14.9391 12 16 12C17.0609 12 18.0783 12.4214 18.8284 13.1716C19.5786 13.9217 20 14.9391 20 16C20 17.0609 19.5786 18.0783 18.8284 18.8284C18.0783 19.5786 17.0609 20 16 20ZM14.6667 16C14.6667 16.3536 14.8071 16.6928 15.0572 16.9428C15.3072 17.1928 15.6464 17.3333 16 17.3333C16.3536 17.3333 16.6928 17.1928 16.9428 16.9428C17.1929 16.6928 17.3333 16.3536 17.3333 16C17.3333 15.6464 17.1929 15.3072 16.9428 15.0572C16.6928 14.8071 16.3536 14.6667 16 14.6667C15.6464 14.6667 15.3072 14.8071 15.0572 15.0572C14.8071 15.3072 14.6667 15.6464 14.6667 16ZM16 29.3333C14.9391 29.3333 13.9217 28.9119 13.1716 28.1618C12.4214 27.4116 12 26.3942 12 25.3333C12 24.2725 12.4214 23.255 13.1716 22.5049C13.9217 21.7548 14.9391 21.3333 16 21.3333C17.0609 21.3333 18.0783 21.7548 18.8284 22.5049C19.5786 23.255 20 24.2725 20 25.3333C20 26.3942 19.5786 27.4116 18.8284 28.1618C18.0783 28.9119 17.0609 29.3333 16 29.3333ZM14.6667 25.3333C14.6667 25.6869 14.8071 26.0261 15.0572 26.2761C15.3072 26.5262 15.6464 26.6667 16 26.6667C16.3536 26.6667 16.6928 26.5262 16.9428 26.2761C17.1929 26.0261 17.3333 25.6869 17.3333 25.3333C17.3333 24.9797 17.1929 24.6406 16.9428 24.3905C16.6928 24.1405 16.3536 24 16 24C15.6464 24 15.3072 24.1405 15.0572 24.3905C14.8071 24.6406 14.6667 24.9797 14.6667 25.3333Z" fill="#2F3C46"/>
</svg>
