<svg width="35" height="33" viewBox="0 0 35 33" fill="none" xmlns="http://www.w3.org/2000/svg">
<path d="M26.1538 28.4615V25.8462C26.1538 24.4589 25.6027 23.1284 24.6218 22.1474C23.6408 21.1665 22.3104 20.6154 20.9231 20.6154H10.4615C9.07425 20.6154 7.74379 21.1665 6.76283 22.1474C5.78187 23.1284 5.23077 24.4589 5.23077 25.8462V28.4615" stroke="white" stroke-width="2" stroke-linecap="round" stroke-linejoin="round"/>
<path d="M15.6923 15.3846C18.5812 15.3846 20.9231 13.0427 20.9231 10.1538C20.9231 7.26496 18.5812 4.92307 15.6923 4.92307C12.8034 4.92307 10.4615 7.26496 10.4615 10.1538C10.4615 13.0427 12.8034 15.3846 15.6923 15.3846Z" stroke="white" stroke-width="2" stroke-linecap="round" stroke-linejoin="round"/>
<path d="M28.7692 1L30.3855 4.44318L34 4.99871L31.3846 7.67734L32.0018 11.4615L28.7692 9.67395L25.5366 11.4615L26.1538 7.67734L23.5385 4.99871L27.1529 4.44318L28.7692 1Z" stroke="white" stroke-width="1.5" stroke-linecap="round" stroke-linejoin="round"/>
</svg>
