<svg width="25" height="24" viewBox="0 0 25 24" fill="none" xmlns="http://www.w3.org/2000/svg">
<path d="M18.4615 20.3847V18.5385C18.4615 17.5592 18.0725 16.6201 17.3801 15.9276C16.6876 15.2352 15.7485 14.8462 14.7692 14.8462H7.38461C6.40535 14.8462 5.4662 15.2352 4.77376 15.9276C4.08132 16.6201 3.69231 17.5592 3.69231 18.5385V20.3847" stroke="white" stroke-width="2" stroke-linecap="round" stroke-linejoin="round"/>
<path d="M11.0769 11.1537C13.1161 11.1537 14.7692 9.50056 14.7692 7.46135C14.7692 5.42215 13.1161 3.76904 11.0769 3.76904C9.03772 3.76904 7.38461 5.42215 7.38461 7.46135C7.38461 9.50056 9.03772 11.1537 11.0769 11.1537Z" fill="white" stroke="white" stroke-width="2" stroke-linecap="round" stroke-linejoin="round"/>
<path d="M20.3077 1L21.4486 3.43048L24 3.82262L22.1538 5.71342L22.5895 8.38462L20.3077 7.12279L18.0258 8.38462L18.4615 5.71342L16.6154 3.82262L19.1667 3.43048L20.3077 1Z" fill="white" stroke="white" stroke-width="1.5" stroke-linecap="round" stroke-linejoin="round"/>
</svg>
