<svg width="33" height="29" viewBox="0 0 33 29" fill="none" xmlns="http://www.w3.org/2000/svg">
<path fill-rule="evenodd" clip-rule="evenodd" d="M32.0339 0.299108C32.4327 0.697934 32.4327 1.34458 32.0339 1.74343L19.0983 14.6798C18.9068 14.8713 18.647 14.9789 18.3761 14.9789C18.1053 14.9789 17.8455 14.8713 17.654 14.6798L11.5672 8.59332L2.07645 18.0841C1.67762 18.4829 1.03097 18.4829 0.632136 18.0841C0.233298 17.6852 0.233298 17.0386 0.632136 16.6397L10.845 6.42685C11.2438 6.02802 11.8905 6.02802 12.2893 6.42684L18.3761 12.5133L30.5895 0.299149C30.9884 -0.0997003 31.635 -0.0997185 32.0339 0.299108Z" fill="white"/>
<path fill-rule="evenodd" clip-rule="evenodd" d="M22.1201 1.02129C22.1201 0.457246 22.5774 0 23.1414 0H31.3117C31.8758 0 32.333 0.457246 32.333 1.02129V9.19159C32.333 9.75563 31.8758 10.2129 31.3117 10.2129C30.7477 10.2129 30.2904 9.75563 30.2904 9.19159V2.04258H23.1414C22.5774 2.04258 22.1201 1.58533 22.1201 1.02129Z" fill="white"/>
<path d="M31.6528 28.5961H1.01421V21.447L11.7377 11.2342L18.3761 17.8725L29.0996 7.14901V11.2342C29.0996 11.7982 29.5572 12.2555 30.1209 12.2555H31.6528V28.5961Z" fill="white"/>
</svg>
