<svg width="24" height="24" viewBox="0 0 24 24" fill="none" xmlns="http://www.w3.org/2000/svg">
<circle cx="12" cy="12" r="11.5" fill="#FCE388" stroke="#2F3C46"/>
<path d="M18 13.5C18 14.2879 17.8448 15.0681 17.5433 15.7961C17.2417 16.5241 16.7998 17.1855 16.2426 17.7426C15.6855 18.2998 15.0241 18.7417 14.2961 19.0433C13.5681 19.3448 12.7879 19.5 12 19.5C11.2121 19.5 10.4319 19.3448 9.7039 19.0433C8.97595 18.7417 8.31451 18.2998 7.75736 17.7426C7.20021 17.1855 6.75825 16.5241 6.45672 15.7961C6.15519 15.0681 6 14.2879 6 13.5L12 13.5H18Z" fill="#2F3C46"/>
<path d="M7.02447 5.96353C7.17415 5.50287 7.82585 5.50287 7.97553 5.96353L8.39806 7.26393C8.46499 7.46994 8.65697 7.60942 8.87358 7.60942H10.2409C10.7253 7.60942 10.9267 8.22923 10.5348 8.51393L9.42861 9.31763C9.25337 9.44495 9.18004 9.67063 9.24698 9.87664L9.66951 11.1771C9.81918 11.6377 9.29194 12.0208 8.90008 11.7361L7.79389 10.9324C7.61865 10.8051 7.38135 10.8051 7.20611 10.9324L6.09992 11.7361C5.70806 12.0208 5.18082 11.6377 5.33049 11.1771L5.75302 9.87664C5.81996 9.67063 5.74663 9.44495 5.57139 9.31763L4.4652 8.51393C4.07334 8.22923 4.27473 7.60942 4.75909 7.60942H6.12642C6.34303 7.60942 6.53501 7.46994 6.60194 7.26393L7.02447 5.96353Z" fill="#2F3C46"/>
<path d="M16.0245 5.96353C16.1741 5.50287 16.8259 5.50287 16.9755 5.96353L17.3981 7.26393C17.465 7.46994 17.657 7.60942 17.8736 7.60942H19.2409C19.7253 7.60942 19.9267 8.22923 19.5348 8.51393L18.4286 9.31763C18.2534 9.44495 18.18 9.67063 18.247 9.87664L18.6695 11.1771C18.8192 11.6377 18.2919 12.0208 17.9001 11.7361L16.7939 10.9324C16.6186 10.8051 16.3814 10.8051 16.2061 10.9324L15.0999 11.7361C14.7081 12.0208 14.1808 11.6377 14.3305 11.1771L14.753 9.87664C14.82 9.67063 14.7466 9.44495 14.5714 9.31763L13.4652 8.51393C13.0733 8.22923 13.2747 7.60942 13.7591 7.60942H15.1264C15.343 7.60942 15.535 7.46994 15.6019 7.26393L16.0245 5.96353Z" fill="#2F3C46"/>
</svg>
