<svg width="22" height="54" viewBox="0 0 22 54" fill="none" xmlns="http://www.w3.org/2000/svg">
<path d="M0 0V54C1.25804 54 2.44164 53.4038 3.19045 52.3929L20.2364 29.3809C21.2841 27.9665 21.2841 26.0335 20.2364 24.6191L3.19046 1.60711C2.44164 0.59621 1.25804 0 0 0Z" fill="#009496"/>
<path fill-rule="evenodd" clip-rule="evenodd" d="M1 53.872C0.676935 53.9561 0.341205 54 0 54V0C0.341205 0 0.676935 0.0438576 1 0.127951C1.86809 0.353914 2.64473 0.870388 3.19046 1.60711L20.2364 24.6191C21.2841 26.0335 21.2841 27.9665 20.2364 29.3809L3.19045 52.3929C2.64473 53.1296 1.86809 53.6461 1 53.872ZM0 1V52.7673C0.547081 52.5716 2.03219 52.2765 2.3869 51.7977L19.4328 28.7857C20.2186 27.7249 20.2186 26.2751 19.4328 25.2143L2.3869 2.20234C2.03219 1.72349 0.547081 1.19563 0 1Z" fill="white"/>
</svg>
